<svg id="Layer_1" data-name="Layer 1" xmlns="http://www.w3.org/2000/svg" width="12" height="24" viewBox="0 0 12 24"><defs><style>.cls-1{fill:#263238;}</style></defs><title>arrow-right-dark</title><rect class="cls-1" x="311" y="578" width="1" height="1" transform="translate(-578 335) rotate(-90)"/><rect class="cls-1" x="312" y="577" width="1" height="1" transform="translate(-576 335) rotate(-90)"/><rect class="cls-1" x="313" y="576" width="1" height="1" transform="translate(-574 335) rotate(-90)"/><rect class="cls-1" x="314" y="575" width="1" height="1" transform="translate(-572 335) rotate(-90)"/><rect class="cls-1" x="315" y="574" width="1" height="1" transform="translate(-570 335) rotate(-90)"/><rect class="cls-1" x="316" y="573" width="1" height="1" transform="translate(-568 335) rotate(-90)"/><rect class="cls-1" x="317" y="572" width="1" height="1" transform="translate(-566 335) rotate(-90)"/><rect class="cls-1" x="318" y="571" width="1" height="1" transform="translate(-564 335) rotate(-90)"/><rect class="cls-1" x="319" y="570" width="1" height="1" transform="translate(-562 335) rotate(-90)"/><rect class="cls-1" x="320" y="569" width="1" height="1" transform="translate(-560 335) rotate(-90)"/><rect class="cls-1" x="321" y="568" width="1" height="1" transform="translate(-558 335) rotate(-90)"/><rect class="cls-1" x="321.5" y="566.5" width="2" height="1" transform="translate(-555.5 334.5) rotate(-90)"/><rect class="cls-1" x="311" y="555" width="1" height="1" transform="translate(556 -311) rotate(90)"/><rect class="cls-1" x="312" y="556" width="1" height="1" transform="translate(558 -311) rotate(90)"/><rect class="cls-1" x="313" y="557" width="1" height="1" transform="translate(560 -311) rotate(90)"/><rect class="cls-1" x="314" y="558" width="1" height="1" transform="translate(562 -311) rotate(90)"/><rect class="cls-1" x="315" y="559" width="1" height="1" transform="translate(564 -311) rotate(90)"/><rect class="cls-1" x="316" y="560" width="1" height="1" transform="translate(566 -311) rotate(90)"/><rect class="cls-1" x="317" y="561" width="1" height="1" transform="translate(568 -311) rotate(90)"/><rect class="cls-1" x="318" y="562" width="1" height="1" transform="translate(570 -311) rotate(90)"/><rect class="cls-1" x="319" y="563" width="1" height="1" transform="translate(572 -311) rotate(90)"/><rect class="cls-1" x="320" y="564" width="1" height="1" transform="translate(574 -311) rotate(90)"/><rect class="cls-1" x="321" y="565" width="1" height="1" transform="translate(576 -311) rotate(90)"/><rect class="cls-1" x="299.5" y="566.5" width="24" height="1" transform="translate(-566.5 323.5) rotate(-90)"/><rect class="cls-1" x="321" y="566" width="1" height="2" transform="translate(332 579) rotate(-180)"/><rect class="cls-1" x="320" y="565" width="1" height="4" transform="translate(330 579) rotate(-180)"/><rect class="cls-1" x="319" y="564" width="1" height="6" transform="translate(328 579) rotate(-180)"/><rect class="cls-1" x="318" y="563" width="1" height="8" transform="translate(326 579) rotate(-180)"/><rect class="cls-1" x="317" y="562" width="1" height="10" transform="translate(324 579) rotate(-180)"/><rect class="cls-1" x="316" y="561" width="1" height="12" transform="translate(322 579) rotate(-180)"/><rect class="cls-1" x="315" y="560" width="1" height="14" transform="translate(320 579) rotate(-180)"/><rect class="cls-1" x="314" y="559" width="1" height="16" transform="translate(318 579) rotate(-180)"/><rect class="cls-1" x="313" y="558" width="1" height="18" transform="translate(316 579) rotate(-180)"/><rect class="cls-1" x="312" y="557" width="1" height="20" transform="translate(314 579) rotate(-180)"/></svg>