<svg id="Layer_1" data-name="Layer 1" xmlns="http://www.w3.org/2000/svg" width="12" height="24" viewBox="0 0 12 24">
    <defs>
        <style>.cls-1{fill:#263238;}</style>
    </defs>
    <title>arrow-left-dark</title>
    <rect class="cls-1" x="322" y="578" width="1" height="1" transform="translate(-567 346) rotate(-90)"/>
    <rect class="cls-1" x="321" y="577" width="1" height="1" transform="translate(-567 344) rotate(-90)"/>
    <rect class="cls-1" x="320" y="576" width="1" height="1" transform="translate(-567 342) rotate(-90)"/>
    <rect class="cls-1" x="319" y="575" width="1" height="1" transform="translate(-567 340) rotate(-90)"/>
    <rect class="cls-1" x="318" y="574" width="1" height="1" transform="translate(-567 338) rotate(-90)"/>
    <rect class="cls-1" x="317" y="573" width="1" height="1" transform="translate(-567 336) rotate(-90)"/>
    <rect class="cls-1" x="316" y="572" width="1" height="1" transform="translate(-567 334) rotate(-90)"/>
    <rect class="cls-1" x="315" y="571" width="1" height="1" transform="translate(-567 332) rotate(-90)"/>
    <rect class="cls-1" x="314" y="570" width="1" height="1" transform="translate(-567 330) rotate(-90)"/>
    <rect class="cls-1" x="313" y="569" width="1" height="1" transform="translate(-567 328) rotate(-90)"/>
    <rect class="cls-1" x="312" y="568" width="1" height="1" transform="translate(-567 326) rotate(-90)"/>
    <rect class="cls-1" x="310.5" y="566.5" width="2" height="1" transform="translate(-566.5 323.5) rotate(-90)"/>
    <rect class="cls-1" x="322" y="555" width="1" height="1" transform="translate(567 -322) rotate(90)"/>
    <rect class="cls-1" x="321" y="556" width="1" height="1" transform="translate(567 -320) rotate(90)"/>
    <rect class="cls-1" x="320" y="557" width="1" height="1" transform="translate(567 -318) rotate(90)"/>
    <rect class="cls-1" x="319" y="558" width="1" height="1" transform="translate(567 -316) rotate(90)"/>
    <rect class="cls-1" x="318" y="559" width="1" height="1" transform="translate(567 -314) rotate(90)"/>
    <rect class="cls-1" x="317" y="560" width="1" height="1" transform="translate(567 -312) rotate(90)"/>
    <rect class="cls-1" x="316" y="561" width="1" height="1" transform="translate(567 -310) rotate(90)"/>
    <rect class="cls-1" x="315" y="562" width="1" height="1" transform="translate(567 -308) rotate(90)"/>
    <rect class="cls-1" x="314" y="563" width="1" height="1" transform="translate(567 -306) rotate(90)"/>
    <rect class="cls-1" x="313" y="564" width="1" height="1" transform="translate(567 -304) rotate(90)"/>
    <rect class="cls-1" x="312" y="565" width="1" height="1" transform="translate(567 -302) rotate(90)"/>
    <rect class="cls-1" x="310.5" y="566.5" width="24" height="1" transform="translate(-555.5 334.5) rotate(-90)"/>
    <rect class="cls-1" x="1" y="11" width="1" height="2"/><rect class="cls-1" x="2" y="10" width="1" height="4"/>
    <rect class="cls-1" x="3" y="9" width="1" height="6"/><rect class="cls-1" x="4" y="8" width="1" height="8"/>
    <rect class="cls-1" x="5" y="7" width="1" height="10"/><rect class="cls-1" x="6" y="6" width="1" height="12"/>
    <rect class="cls-1" x="7" y="5" width="1" height="14"/><rect class="cls-1" x="8" y="4" width="1" height="16"/>
    <rect class="cls-1" x="9" y="3" width="1" height="18"/><rect class="cls-1" x="10" y="2" width="1" height="20"/>
</svg>